<svg width="19" height="16" viewBox="0 0 19 16"  xmlns="http://www.w3.org/2000/svg">
<path fill-rule="evenodd" clip-rule="evenodd" d="M10.7083 0.273143L18.7859 7.39878C19.0137 7.59973 19.0354 7.94729 18.8345 8.17508C18.7301 8.29343 18.5799 8.36123 18.4221 8.36123H15.4786V14.9C15.4786 15.5075 14.9861 16 14.3786 16H11.6297L11.63 12.1931C11.63 11.3301 10.9673 10.6219 10.123 10.5498L9.98066 10.5437C9.06973 10.5437 8.33128 11.2822 8.33128 12.1931L8.33066 16H5.58273C4.97521 16 4.48273 15.5075 4.48273 14.9V8.36123H1.53926C1.2355 8.36123 0.989258 8.11499 0.989258 7.81123C0.989258 7.65341 1.05706 7.50319 1.17541 7.39878L9.25296 0.273143C9.66876 -0.093652 10.2926 -0.093652 10.7083 0.273143Z" />
</svg>
