<svg width="17" height="17" viewBox="0 0 17 17" fill="none" xmlns="http://www.w3.org/2000/svg">
<path d="M4.93118 5.56668V16.7473H0.760808V5.56668H4.93118ZM12.4667 5.31187C15.64 5.31187 16.7653 7.09461 16.7653 10.6576L16.7846 16.7473H12.6186V11.2933C12.6186 10.9797 12.6171 10.8368 12.6098 10.6628C12.5628 9.5354 12.2943 9.09702 11.4712 9.09702C10.4097 9.09702 10.0749 9.7056 10.0749 11.2103V16.7473H5.89859V5.56668H9.93266V6.16249C10.6393 5.5882 11.5384 5.2759 12.4667 5.31187ZM3.93118 6.56668H1.76081V15.7473H3.93118V6.56668ZM9.90581 7.70564L9.76104 7.95333H8.93266V6.56668H6.89859V15.7473H9.07488V11.2103C9.07488 9.22676 9.69641 8.09702 11.4712 8.09702C12.9725 8.09702 13.5425 9.02763 13.609 10.6211C13.6156 10.7815 13.6179 10.914 13.6184 11.1432L13.6186 15.7473H15.7814L15.7653 10.6592C15.7653 7.57759 14.9663 6.31186 12.4475 6.3115C11.4079 6.2715 10.4308 6.80745 9.90581 7.70564ZM3.7297 0.677239C4.60392 1.03852 5.17414 1.89116 5.17414 2.83708C5.17414 4.12484 4.13241 5.16994 2.84465 5.17414C1.89872 5.17714 1.04424 4.60969 0.680136 3.73665C0.316029 2.86361 0.514112 1.85718 1.1819 1.18724C1.84969 0.517291 2.85548 0.315961 3.7297 0.677239ZM1.89015 1.8932C1.5081 2.27648 1.39478 2.85226 1.60308 3.35173C1.81139 3.8512 2.30024 4.17585 2.84142 4.17413C3.57816 4.17172 4.17414 3.57381 4.17414 2.83708C4.17414 2.29592 3.84791 1.80812 3.34777 1.60143C2.84762 1.39474 2.2722 1.50992 1.89015 1.8932Z" fill="#0273B0"/>
</svg>
