<svg width="20" height="21" viewBox="0 0 20 21" fill="none" xmlns="http://www.w3.org/2000/svg">
<g clip-path="url(#clip0_4_5165)">
<path d="M17.3343 2.2399C17.2694 2.18291 17.1839 2.15698 17.0974 2.16723L7.79294 3.3766C7.64347 3.3962 7.53152 3.52374 7.53152 3.6754V5.48961V6.75958V14.4132C6.98345 13.7514 6.11273 13.3208 5.13036 13.3208C3.47536 13.3208 2.12891 14.538 2.12891 16.0344C2.12891 17.5308 3.47536 18.7481 5.13036 18.7481C6.78536 18.7481 8.13181 17.5308 8.13181 16.0344C8.13181 15.9645 8.1261 15.8957 8.1201 15.8273C8.124 15.8077 8.13181 15.7899 8.13181 15.7694V7.02461L16.836 5.89303V11.3978C16.2879 10.7362 15.4172 10.3057 14.4349 10.3057C12.7799 10.3057 11.4334 11.5229 11.4334 13.0193C11.4334 14.5157 12.7799 15.7329 14.4349 15.7329C16.0748 15.7329 17.4102 14.5371 17.4342 13.0594C17.4342 13.0555 17.4363 13.0522 17.4363 13.0482V5.54991V4.28024V2.46633C17.4363 2.3795 17.3991 2.29688 17.3343 2.2399Z" fill="white"/>
</g>
<defs>
<clipPath id="clip0_4_5165">
<rect width="19.1342" height="19.1342" fill="white" transform="translate(0.273438 0.890625)"/>
</clipPath>
</defs>
</svg>
