<svg width="20" height="17" viewBox="0 0 20 17" fill="none" xmlns="http://www.w3.org/2000/svg">
<path d="M17.5728 6.00746C17.7412 9.30103 16.8188 11.9299 14.8086 13.7402C12.4951 15.8239 8.85904 16.6208 4.83718 15.9899C4.14365 15.8812 3.4076 15.6542 2.65292 15.3449L0.196289 14.3378L2.70688 13.474C3.55324 13.1828 4.23264 12.922 5.02295 12.5749C4.19125 12.2648 3.48705 11.7064 2.99291 10.9468L2.0538 9.50305L2.97632 9.44946C2.52348 9.13559 2.15311 8.74379 1.86095 8.30004C1.605 7.91098 1.41903 7.49265 1.3032 7.06832L0.844514 5.38789L1.99633 5.69681C1.25501 4.65656 1.00043 3.37198 1.3285 2.11401L1.77846 0.38866L3.01604 1.67229C3.46549 2.13846 3.93813 2.54937 4.43177 2.90874C5.58102 3.74538 6.80526 4.28021 8.07423 4.58221C8.50436 4.68457 8.92169 4.75587 9.33732 4.80402C8.95916 2.96166 9.76768 1.62446 11.0506 0.835841C12.6679 -0.158094 14.9017 -0.0680186 16.3806 1.29392C16.4024 1.31399 16.4182 1.31823 16.4245 1.31668C16.6663 1.25659 16.8772 1.19165 17.1228 1.10411L19.0939 0.40166L18.3625 2.49026L19.5905 2.49113L18.3999 4.08756C18.2599 4.2752 18.1151 4.46902 17.9552 4.68239C17.686 5.04183 17.5476 5.51288 17.5728 6.00746ZM17.1548 4.08283C17.3305 3.84845 17.4765 3.65299 17.5983 3.48972L16.9531 3.48926L17.4585 2.04608C17.2157 2.1326 16.9678 2.2121 16.6656 2.28717C16.329 2.37079 15.9694 2.27451 15.7034 2.02976C14.472 0.895723 12.6942 0.999483 11.5742 1.68781C11.0381 2.0174 9.84924 2.99106 10.3917 4.90863C10.4161 4.99484 10.4185 4.99698 10.5118 5.90259C10.0882 5.80432 5.88012 6.08371 2.29614 2.36636C1.95877 3.66001 2.41897 5.00568 3.56735 5.90137L5.16113 7.14465L3.14956 6.94568C2.73986 6.90509 2.4858 6.86344 2.26791 6.80499C2.35 7.10574 2.48687 7.43198 2.69638 7.75043C3.01544 8.23505 3.6174 8.86691 4.67346 9.12555L6.84677 9.65778L4.69146 10.2581C4.40902 10.3368 4.12536 10.3844 3.83117 10.4015C4.38522 11.2532 5.28656 11.7778 6.36901 11.8471L8.62884 11.9918L6.58203 12.9605C5.11581 13.6545 4.20791 14.0151 3.03222 14.4196C3.61251 14.6575 4.31365 14.8957 4.99206 15.002C8.73809 15.5896 12.0723 14.8589 14.1394 12.9972C15.909 11.4035 16.7281 9.06894 16.5741 6.05853C16.5372 5.33405 16.7433 4.6323 17.1548 4.08283Z" fill="#1EA1F1"/>
</svg>
