<svg width="20" height="16" viewBox="0 0 20 16" fill="none" xmlns="http://www.w3.org/2000/svg">
<path d="M10.1229 0.500488C10.1756 0.500698 10.2399 0.501034 10.3148 0.501538C10.564 0.503212 10.8415 0.506225 11.1403 0.510912C11.9945 0.524309 12.8489 0.548428 13.6475 0.586C15.1802 0.658117 16.3178 0.769548 16.9451 0.938253C17.9815 1.22078 18.7891 2.03355 19.065 3.07166C19.2051 3.59772 19.307 4.31049 19.3793 5.17056C19.4322 5.80067 19.4661 6.47362 19.4849 7.14627C19.4962 7.54973 19.5 7.86418 19.5 8.04565C19.5 8.22711 19.4962 8.54157 19.4849 8.94503C19.4661 9.61767 19.4322 10.2906 19.3793 10.9207C19.307 11.7809 19.2051 12.4937 19.065 13.0195C18.7892 14.0577 17.9815 14.8705 16.9435 15.1535C16.3178 15.3217 15.1802 15.4332 13.6475 15.5053C12.8489 15.5429 11.9945 15.567 11.1403 15.5804C10.8415 15.5851 10.564 15.5881 10.3148 15.5898C10.2399 15.5903 10.1756 15.5906 10.1229 15.5908H9.87714C9.82438 15.5906 9.7601 15.5903 9.6852 15.5898C9.43603 15.5881 9.1585 15.5851 8.85966 15.5804C8.00546 15.567 7.15109 15.5429 6.35252 15.5053C4.81976 15.4332 3.68225 15.3217 3.05485 15.153C2.01848 14.8705 1.21084 14.0577 0.935018 13.0198C0.794934 12.4937 0.692956 11.7809 0.620722 10.9207C0.567805 10.2906 0.533896 9.61767 0.515067 8.94503C0.503773 8.54157 0.5 8.22711 0.5 8.04565L0.500242 7.95986C0.501231 7.77252 0.505386 7.49209 0.515067 7.14627C0.533896 6.47362 0.567805 5.80067 0.620722 5.17056C0.692956 4.31042 0.794934 3.59761 0.934954 3.07178C1.21084 2.03361 2.01848 1.22079 3.05653 0.9378C3.68225 0.769548 4.81976 0.658117 6.35252 0.586C7.15109 0.548428 8.00546 0.524309 8.85966 0.510912C9.1585 0.506225 9.43603 0.503212 9.6852 0.501538C9.7601 0.501034 9.82438 0.500698 9.87714 0.500488H10.1229ZM10.1196 1.50048H9.88044C9.8288 1.50069 9.76566 1.50102 9.69192 1.50151C9.44563 1.50317 9.17107 1.50615 8.87535 1.51079C8.03081 1.52403 7.18644 1.54787 6.39952 1.5849C4.94096 1.65352 3.84748 1.76064 3.31787 1.90304C2.62539 2.09183 2.08575 2.63494 1.90135 3.32885C1.77963 3.78593 1.68493 4.44788 1.61721 5.25424C1.56603 5.86368 1.53302 6.51881 1.51468 7.17425C1.50681 7.45524 1.50269 7.6913 1.50098 7.86619V8.22511C1.50269 8.4 1.50681 8.63606 1.51468 8.91705C1.53302 9.57249 1.56603 10.2276 1.61721 10.8371C1.68493 11.6434 1.77963 12.3054 1.90141 12.7627C2.08575 13.4564 2.62539 13.9995 3.3162 14.1878C3.84748 14.3307 4.94096 14.4378 6.39952 14.5064C7.18644 14.5434 8.03081 14.5673 8.87535 14.5805C9.17107 14.5851 9.44563 14.5881 9.69192 14.5898C9.76566 14.5903 9.8288 14.5906 9.88044 14.5908H10.1196C10.1712 14.5906 10.2343 14.5903 10.3081 14.5898C10.5544 14.5881 10.8289 14.5851 11.1247 14.5805C11.9692 14.5673 12.8136 14.5434 13.6005 14.5064C15.059 14.4378 16.1525 14.3307 16.6821 14.1883C17.3746 13.9995 17.9142 13.4564 18.0987 12.7624C18.2204 12.3054 18.3151 11.6434 18.3828 10.8371C18.434 10.2276 18.467 9.57249 18.4853 8.91705C18.4963 8.52366 18.5 8.21834 18.5 8.04565C18.5 7.87296 18.4963 7.56764 18.4853 7.17425C18.467 6.51881 18.434 5.86368 18.3828 5.25424C18.3151 4.44788 18.2204 3.78593 18.0986 3.32861C17.9142 2.63494 17.3746 2.09183 16.6838 1.9035C16.1525 1.76064 15.059 1.65352 13.6005 1.5849C12.8136 1.54787 11.9692 1.52403 11.1247 1.51079C10.8289 1.50615 10.5544 1.50317 10.3081 1.50151C10.2343 1.50102 10.1712 1.50069 10.1196 1.50048ZM7.45455 4.21208L14.193 8.04565L7.45455 11.8792V4.21208ZM8.45455 5.93149V10.1598L12.1707 8.04565L8.45455 5.93149Z" fill="#FF2500"/>
</svg>
